<?xml version="1.0" encoding="UTF-8"?>
<svg width="700pt" height="700pt" version="1.1" viewBox="0 0 700 700" xmlns="http://www.w3.org/2000/svg" xmlns:xlink="http://www.w3.org/1999/xlink">
 <defs>
  <symbol id="u" overflow="visible">
   <path d="m7.3438-0.4375c-0.38672 0.19922-0.78125 0.34375-1.1875 0.4375-0.40625 0.10156-0.83594 0.15625-1.2812 0.15625-1.3359 0-2.3906-0.36719-3.1719-1.1094-0.77344-0.75-1.1562-1.7578-1.1562-3.0312 0-1.2812 0.38281-2.2891 1.1562-3.0312 0.78125-0.73828 1.8359-1.1094 3.1719-1.1094 0.44531 0 0.875 0.054688 1.2812 0.15625 0.40625 0.09375 0.80078 0.24219 1.1875 0.4375v1.6406c-0.38672-0.25781-0.76562-0.44531-1.1406-0.5625-0.36719-0.125-0.75781-0.1875-1.1719-0.1875-0.73047 0-1.3086 0.24219-1.7344 0.71875-0.41797 0.46875-0.625 1.1172-0.625 1.9375 0 0.82422 0.20703 1.4688 0.625 1.9375 0.42578 0.46875 1.0039 0.70312 1.7344 0.70312 0.41406 0 0.80469-0.054688 1.1719-0.17188 0.375-0.125 0.75391-0.31641 1.1406-0.57812z"/>
  </symbol>
  <symbol id="e" overflow="visible">
   <path d="m5.375-4.3594c-0.16797-0.070313-0.33594-0.12891-0.5-0.17188-0.16797-0.039062-0.33594-0.0625-0.5-0.0625-0.5 0-0.88672 0.16406-1.1562 0.48438-0.26172 0.3125-0.39062 0.76172-0.39062 1.3438v2.7656h-1.9062v-5.9844h1.9062v0.98438c0.25-0.39453 0.53125-0.67969 0.84375-0.85938 0.32031-0.1875 0.70703-0.28125 1.1562-0.28125 0.0625 0 0.12891 0.007813 0.20312 0.015625 0.082031 0 0.19141 0.011719 0.32812 0.03125z"/>
  </symbol>
  <symbol id="b" overflow="visible">
   <path d="m6.9062-3.0156v0.54688h-4.4844c0.050781 0.44922 0.21094 0.78906 0.48438 1.0156 0.28125 0.21875 0.67188 0.32812 1.1719 0.32812 0.39453 0 0.80469-0.054688 1.2344-0.17188 0.42578-0.11328 0.85938-0.29688 1.2969-0.54688v1.4844c-0.44922 0.16797-0.90234 0.29297-1.3594 0.375-0.44922 0.09375-0.89844 0.14062-1.3438 0.14062-1.0938 0-1.9453-0.27344-2.5469-0.82812-0.59375-0.55078-0.89062-1.3203-0.89062-2.3125 0-0.97656 0.28906-1.75 0.875-2.3125 0.59375-0.5625 1.4102-0.84375 2.4531-0.84375 0.9375 0 1.6875 0.28906 2.25 0.85938 0.57031 0.5625 0.85938 1.3203 0.85938 2.2656zm-1.9688-0.625c0-0.36328-0.10938-0.65625-0.32812-0.875-0.21094-0.22656-0.48438-0.34375-0.82812-0.34375-0.375 0-0.67969 0.10547-0.90625 0.3125-0.23047 0.21094-0.375 0.51172-0.4375 0.90625z"/>
  </symbol>
  <symbol id="d" overflow="visible">
   <path d="m3.6094-2.7031c-0.40625 0-0.71094 0.074219-0.90625 0.21875-0.19922 0.13672-0.29688 0.33594-0.29688 0.59375 0 0.24219 0.078125 0.42969 0.23438 0.5625 0.16406 0.13672 0.39453 0.20312 0.6875 0.20312 0.35156 0 0.64844-0.125 0.89062-0.375 0.25-0.25781 0.375-0.58203 0.375-0.96875v-0.23438zm2.9219-0.71875v3.4219h-1.9375v-0.89062c-0.25 0.36719-0.53906 0.63281-0.85938 0.79688-0.32422 0.16406-0.71484 0.25-1.1719 0.25-0.625 0-1.1328-0.17969-1.5156-0.54688-0.38672-0.36328-0.57812-0.83203-0.57812-1.4062 0-0.69531 0.23828-1.207 0.71875-1.5312 0.48828-0.33203 1.25-0.5 2.2812-0.5h1.125v-0.15625c0-0.30078-0.12109-0.51953-0.35938-0.65625-0.24219-0.14453-0.60938-0.21875-1.1094-0.21875-0.40625 0-0.78906 0.042969-1.1406 0.125-0.35547 0.085937-0.68359 0.20312-0.98438 0.35938v-1.4531c0.40625-0.10156 0.8125-0.17969 1.2188-0.23438 0.41406-0.050781 0.83203-0.078125 1.25-0.078125 1.082 0 1.8633 0.21484 2.3438 0.64062 0.47656 0.42969 0.71875 1.1211 0.71875 2.0781z"/>
  </symbol>
  <symbol id="c" overflow="visible">
   <path d="m3.0156-7.6875v1.7031h1.9688v1.3594h-1.9688v2.5469c0 0.28125 0.050781 0.46875 0.15625 0.5625 0.11328 0.09375 0.33203 0.14062 0.65625 0.14062h0.98438v1.375h-1.6406c-0.75 0-1.2891-0.15625-1.6094-0.46875-0.3125-0.32031-0.46875-0.85938-0.46875-1.6094v-2.5469h-0.95312v-1.3594h0.95312v-1.7031z"/>
  </symbol>
  <symbol id="k" overflow="visible">
   <path d="m5-5.1094v-3.2188h1.9219v8.3281h-1.9219v-0.85938c-0.27344 0.34375-0.57031 0.60156-0.89062 0.76562-0.3125 0.16406-0.67969 0.25-1.0938 0.25-0.73047 0-1.3359-0.28906-1.8125-0.875-0.48047-0.59375-0.71875-1.3477-0.71875-2.2656 0-0.92578 0.23828-1.6797 0.71875-2.2656 0.47656-0.59375 1.082-0.89062 1.8125-0.89062 0.41406 0 0.78125 0.085937 1.0938 0.25 0.32031 0.16797 0.61719 0.42969 0.89062 0.78125zm-1.2656 3.875c0.40625 0 0.71875-0.14844 0.9375-0.45312 0.21875-0.30078 0.32812-0.73438 0.32812-1.2969 0-0.57031-0.10938-1.0078-0.32812-1.3125-0.21875-0.30078-0.53125-0.45312-0.9375-0.45312s-0.71875 0.15234-0.9375 0.45312c-0.21875 0.30469-0.32812 0.74219-0.32812 1.3125 0 0.5625 0.10938 0.99609 0.32812 1.2969 0.21875 0.30469 0.53125 0.45312 0.9375 0.45312z"/>
  </symbol>
  <symbol id="j" overflow="visible">
   <path d="m4.1094-1.2344c0.40625 0 0.71875-0.14844 0.9375-0.45312 0.21875-0.30078 0.32812-0.73438 0.32812-1.2969 0-0.57031-0.10938-1.0078-0.32812-1.3125-0.21875-0.30078-0.53125-0.45312-0.9375-0.45312s-0.72656 0.15234-0.95312 0.45312c-0.21875 0.30469-0.32812 0.74219-0.32812 1.3125 0 0.5625 0.10938 0.99609 0.32812 1.2969 0.22656 0.30469 0.54688 0.45312 0.95312 0.45312zm-1.2812-3.875c0.26953-0.35156 0.5625-0.61328 0.875-0.78125 0.32031-0.16406 0.69141-0.25 1.1094-0.25 0.73828 0 1.3438 0.29688 1.8125 0.89062 0.47656 0.58594 0.71875 1.3398 0.71875 2.2656 0 0.91797-0.24219 1.6719-0.71875 2.2656-0.46875 0.58594-1.0742 0.875-1.8125 0.875-0.41797 0-0.78906-0.085938-1.1094-0.25-0.3125-0.16406-0.60547-0.42188-0.875-0.76562v0.85938h-1.9062v-8.3281h1.9062z"/>
  </symbol>
  <symbol id="g" overflow="visible">
   <path d="m0.14062-5.9844h1.9062l1.6094 4.0625 1.375-4.0625h1.9062l-2.5156 6.5469c-0.25 0.66406-0.54688 1.1289-0.89062 1.3906-0.33594 0.26953-0.77734 0.40625-1.3281 0.40625h-1.1094v-1.25h0.60938c0.32031 0 0.55469-0.054687 0.70312-0.15625 0.14453-0.10547 0.25781-0.29297 0.34375-0.5625l0.046875-0.15625z"/>
  </symbol>
  <symbol id="i" overflow="visible">
   <path d="m8.1875-0.59375c-0.52344 0.25-1.0586 0.4375-1.6094 0.5625-0.55469 0.125-1.1211 0.1875-1.7031 0.1875-1.3359 0-2.3906-0.36719-3.1719-1.1094-0.77344-0.75-1.1562-1.7578-1.1562-3.0312 0-1.2891 0.39453-2.3008 1.1875-3.0312 0.78906-0.73828 1.875-1.1094 3.25-1.1094 0.53125 0 1.0352 0.054688 1.5156 0.15625 0.48828 0.09375 0.95312 0.24219 1.3906 0.4375v1.6406c-0.44922-0.25-0.89062-0.4375-1.3281-0.5625s-0.88281-0.1875-1.3281-0.1875c-0.82422 0-1.4609 0.23047-1.9062 0.6875-0.4375 0.46094-0.65625 1.1172-0.65625 1.9688 0 0.84375 0.21094 1.4961 0.64062 1.9531 0.42578 0.46094 1.0352 0.6875 1.8281 0.6875 0.20703 0 0.40625-0.007812 0.59375-0.03125 0.1875-0.03125 0.35156-0.070312 0.5-0.125v-1.5469h-1.2656v-1.3906h3.2188z"/>
  </symbol>
  <symbol id="f" overflow="visible">
   <path d="m6.9375-3.6406v3.6406h-1.9219v-2.7969c0-0.50781-0.011719-0.86328-0.03125-1.0625-0.023437-0.19531-0.0625-0.34375-0.125-0.4375-0.074219-0.125-0.17969-0.21875-0.3125-0.28125-0.125-0.070313-0.26562-0.10938-0.42188-0.10938-0.40625 0-0.72656 0.15625-0.95312 0.46875-0.23047 0.30469-0.34375 0.72656-0.34375 1.2656v2.9531h-1.9062v-5.9844h1.9062v0.875c0.28906-0.35156 0.59766-0.61328 0.92188-0.78125 0.32031-0.16406 0.67969-0.25 1.0781-0.25 0.6875 0 1.207 0.21484 1.5625 0.64062 0.36328 0.42969 0.54688 1.0469 0.54688 1.8594z"/>
  </symbol>
  <symbol id="t" overflow="visible">
   <path d="m1-7.9844h2.0625v2.9219l2.9688-2.9219h2.3906l-3.8438 3.7812 4.2344 4.2031h-2.5781l-3.1719-3.1406v3.1406h-2.0625z"/>
  </symbol>
  <symbol id="h" overflow="visible">
   <path d="m6.9375-3.6406v3.6406h-1.9219v-2.7812c0-0.51953-0.011719-0.87891-0.03125-1.0781-0.023437-0.19531-0.0625-0.34375-0.125-0.4375-0.074219-0.125-0.17969-0.21875-0.3125-0.28125-0.125-0.070313-0.26562-0.10938-0.42188-0.10938-0.40625 0-0.72656 0.15625-0.95312 0.46875-0.23047 0.30469-0.34375 0.72656-0.34375 1.2656v2.9531h-1.9062v-8.3281h1.9062v3.2188c0.28906-0.35156 0.59766-0.61328 0.92188-0.78125 0.32031-0.16406 0.67969-0.25 1.0781-0.25 0.6875 0 1.207 0.21484 1.5625 0.64062 0.36328 0.42969 0.54688 1.0469 0.54688 1.8594z"/>
  </symbol>
  <symbol id="a" overflow="visible">
   <path d="m3.7656-4.7656c-0.41797 0-0.74219 0.15625-0.96875 0.46875-0.21875 0.30469-0.32812 0.74219-0.32812 1.3125 0 0.57422 0.10938 1.0117 0.32812 1.3125 0.22656 0.30469 0.55078 0.45312 0.96875 0.45312 0.41406 0 0.73438-0.14844 0.95312-0.45312 0.22656-0.30078 0.34375-0.73828 0.34375-1.3125 0-0.57031-0.11719-1.0078-0.34375-1.3125-0.21875-0.3125-0.53906-0.46875-0.95312-0.46875zm0-1.375c1.0312 0 1.832 0.28125 2.4062 0.84375 0.58203 0.55469 0.875 1.3242 0.875 2.3125 0 0.98047-0.29297 1.75-0.875 2.3125-0.57422 0.55469-1.375 0.82812-2.4062 0.82812s-1.8398-0.27344-2.4219-0.82812c-0.58594-0.5625-0.875-1.332-0.875-2.3125 0-0.98828 0.28906-1.7578 0.875-2.3125 0.58203-0.5625 1.3906-0.84375 2.4219-0.84375z"/>
  </symbol>
  <symbol id="s" overflow="visible">
   <path d="m1-7.9844h2.0625v6.4219h3.625v1.5625h-5.6875z"/>
  </symbol>
  <symbol id="r" overflow="visible">
   <path d="m4.8594-8.3281v1.2656h-1.0625c-0.27344 0-0.46094 0.054688-0.5625 0.15625-0.10547 0.09375-0.15625 0.26172-0.15625 0.5v0.42188h1.6406v1.3594h-1.6406v4.625h-1.9219v-4.625h-0.95312v-1.3594h0.95312v-0.42188c0-0.65625 0.17969-1.1406 0.54688-1.4531 0.36328-0.3125 0.92578-0.46875 1.6875-0.46875z"/>
  </symbol>
  <symbol id="q" overflow="visible">
   <path d="m6.4688-5c0.23828-0.36328 0.52344-0.64453 0.85938-0.84375 0.33203-0.19531 0.70312-0.29688 1.1094-0.29688 0.6875 0 1.207 0.21484 1.5625 0.64062 0.36328 0.42969 0.54688 1.0469 0.54688 1.8594v3.6406h-1.9219v-3.125-0.14062-0.21875c0-0.42578-0.0625-0.73438-0.1875-0.92188s-0.32422-0.28125-0.59375-0.28125c-0.36719 0-0.64844 0.15234-0.84375 0.45312-0.19922 0.29297-0.30469 0.72656-0.3125 1.2969v2.9375h-1.9219v-3.125c0-0.66406-0.058594-1.0938-0.17188-1.2812-0.11719-0.1875-0.32031-0.28125-0.60938-0.28125-0.36719 0-0.65234 0.15234-0.85938 0.45312-0.19922 0.30469-0.29688 0.73047-0.29688 1.2812v2.9531h-1.9219v-5.9844h1.9219v0.875c0.23828-0.34375 0.50781-0.59766 0.8125-0.76562 0.3125-0.17578 0.64844-0.26562 1.0156-0.26562 0.40625 0 0.76562 0.10547 1.0781 0.3125 0.32031 0.19922 0.56641 0.47656 0.73438 0.82812z"/>
  </symbol>
  <symbol id="p" overflow="visible">
   <path d="m1-7.9844h2.3125l2.8906 5.4688v-5.4688h1.9531v7.9844h-2.2969l-2.9062-5.4844v5.4844h-1.9531z"/>
  </symbol>
  <symbol id="o" overflow="visible">
   <path d="m0.85938-2.3281v-3.6562h1.9219v0.59375c0 0.32422-0.007812 0.73047-0.015625 1.2188v0.98438c0 0.48047 0.007813 0.82812 0.03125 1.0469 0.03125 0.21094 0.078125 0.35938 0.14062 0.45312 0.070312 0.125 0.17188 0.22656 0.29688 0.29688 0.13281 0.0625 0.28125 0.09375 0.4375 0.09375 0.40625 0 0.72266-0.14844 0.95312-0.45312 0.22656-0.3125 0.34375-0.73828 0.34375-1.2812v-2.9531h1.9062v5.9844h-1.9062v-0.85938c-0.29297 0.34375-0.60156 0.60156-0.92188 0.76562-0.32422 0.16406-0.67969 0.25-1.0625 0.25-0.69922 0-1.2305-0.21094-1.5938-0.64062-0.35547-0.42578-0.53125-1.0391-0.53125-1.8438z"/>
  </symbol>
  <symbol id="n" overflow="visible">
   <path d="m1-7.9844h3.4219c1.0195 0 1.8008 0.23047 2.3438 0.6875 0.53906 0.44922 0.8125 1.0898 0.8125 1.9219 0 0.83594-0.27344 1.4805-0.8125 1.9375-0.54297 0.44922-1.3242 0.67188-2.3438 0.67188h-1.3594v2.7656h-2.0625zm2.0625 1.4844v2.2344h1.1406c0.39453 0 0.70312-0.09375 0.92188-0.28125 0.21875-0.19531 0.32812-0.47266 0.32812-0.82812 0-0.36328-0.10938-0.64062-0.32812-0.82812-0.21875-0.19531-0.52734-0.29688-0.92188-0.29688z"/>
  </symbol>
  <symbol id="m" overflow="visible">
   <path d="m0.92188-5.9844h1.9062v5.875c0 0.80078-0.19531 1.4102-0.57812 1.8281-0.38672 0.42578-0.94531 0.64062-1.6719 0.64062h-0.9375v-1.25h0.32812c0.36328 0 0.61328-0.085937 0.75-0.25 0.13281-0.16797 0.20312-0.49219 0.20312-0.96875zm0-2.3438h1.9062v1.5625h-1.9062z"/>
  </symbol>
  <symbol id="l" overflow="visible">
   <path d="m5.7656-5.7969v1.5625c-0.26172-0.1875-0.52734-0.32031-0.79688-0.40625-0.26172-0.082031-0.53125-0.125-0.8125-0.125-0.53125 0-0.94922 0.15625-1.25 0.46875-0.29297 0.3125-0.4375 0.75-0.4375 1.3125 0 0.55469 0.14453 0.98438 0.4375 1.2969 0.30078 0.3125 0.71875 0.46875 1.25 0.46875 0.30078 0 0.58594-0.039062 0.85938-0.125 0.26953-0.09375 0.51953-0.22656 0.75-0.40625v1.5781c-0.30469 0.10547-0.60938 0.17969-0.92188 0.23438-0.30469 0.0625-0.60938 0.09375-0.92188 0.09375-1.0859 0-1.9336-0.27344-2.5469-0.82812-0.60547-0.5625-0.90625-1.332-0.90625-2.3125 0-0.98828 0.30078-1.7578 0.90625-2.3125 0.61328-0.5625 1.4609-0.84375 2.5469-0.84375 0.3125 0 0.61719 0.03125 0.92188 0.09375 0.3125 0.054687 0.61719 0.13672 0.92188 0.25z"/>
  </symbol>
 </defs>
 <g>
  <path d="m350 140.21c27.211 0 49.266-22.055 49.266-49.266 0-27.211-22.055-49.266-49.266-49.266-27.207 0-49.266 22.055-49.266 49.266 0 27.207 22.055 49.266 49.266 49.266zm0-48.062c7.5586 0 13.684 8.0859 13.684 18.062 0 9.9766-6.125 18.062-13.684 18.062s-13.684-8.0859-13.684-18.062c-0.003906-9.9766 6.125-18.062 13.684-18.062z"/>
  <path d="m290.78 183.11v133.6l-26.996 212.82c-1.8828 14.836 8.6211 28.379 23.449 30.262 14.832 1.8828 28.383-8.6133 30.266-23.449l25.375-200.05h14.246l25.375 200.05c1.8828 14.836 15.434 25.328 30.266 23.449 14.828-1.8828 25.332-15.426 23.449-30.262l-26.992-212.79 0.003906-133.63c8.1797-3.75 20.125-10.516 32.258-22.074 20.766-19.59 40.934-53.977 40.742-105.95 0.003906-5.7656-0.23047-11.766-0.73828-17.996-0.28516-3.5469-5.2031-5.4023-11.258-5.8555v-25.199c0-3.332-2.7031-6.0312-6.0352-6.0312-3.332 0-6.0312 2.6992-6.0312 6.0312v25.977c-6.5781 1.3242-11.906 4.0742-11.598 7.9062 0.42969 5.3047 0.625 10.352 0.625 15.168-0.17188 41.875-14.441 64.93-28.551 79.285-11.074 11.133-22.656 16.48-27.348 18.32h-82.586c-4.6875-1.8398-16.277-7.1875-27.348-18.32-14.109-14.352-28.379-37.41-28.551-79.285 0-4.8164 0.19531-9.8672 0.625-15.168 0.3125-3.832-5.0195-6.582-11.598-7.9062l0.003907-25.977c0-3.332-2.7031-6.0312-6.0312-6.0312-3.332 0-6.0352 2.6992-6.0352 6.0312v25.199c-6.0547 0.45312-10.969 2.3086-11.258 5.8555-0.50391 6.2305-0.74609 12.23-0.73828 17.996-0.19141 51.969 19.977 86.359 40.742 105.95 12.137 11.559 24.086 18.328 32.266 22.074zm59.219 128.73-20.801-26.273 11.98-88.289c2.8398 1.0625 5.8281 1.6211 8.8164 1.6172h0.015625c2.9844 0 5.9688-0.55469 8.8047-1.6211l11.984 88.289zm-8.3242-141.23h16.641l4.1602 16.422-0.63281 1c-3.4258 2.8594-7.6289 4.293-11.852 4.2969-4.2227-0.003907-8.4141-1.4336-11.84-4.2852l-0.64062-1.0078z"/>
  <use x="217.773438" y="592.84375" xlink:href="#u"/>
  <use x="225.808594" y="592.84375" xlink:href="#e"/>
  <use x="231.207031" y="592.84375" xlink:href="#b"/>
  <use x="238.632812" y="592.84375" xlink:href="#d"/>
  <use x="246.019531" y="592.84375" xlink:href="#c"/>
  <use x="251.253906" y="592.84375" xlink:href="#b"/>
  <use x="258.679688" y="592.84375" xlink:href="#k"/>
  <use x="270.328125" y="592.84375" xlink:href="#j"/>
  <use x="278.164062" y="592.84375" xlink:href="#g"/>
  <use x="289.113281" y="592.84375" xlink:href="#i"/>
  <use x="298.097656" y="592.84375" xlink:href="#d"/>
  <use x="305.484375" y="592.84375" xlink:href="#f"/>
  <use x="317.089844" y="592.84375" xlink:href="#t"/>
  <use x="325.574219" y="592.84375" xlink:href="#h"/>
  <use x="333.367188" y="592.84375" xlink:href="#a"/>
  <use x="340.890625" y="592.84375" xlink:href="#a"/>
  <use x="348.410156" y="592.84375" xlink:href="#f"/>
  <use x="360.015625" y="592.84375" xlink:href="#s"/>
  <use x="366.992188" y="592.84375" xlink:href="#d"/>
  <use x="374.382812" y="592.84375" xlink:href="#g"/>
  <use x="217.773438" y="603.792969" xlink:href="#r"/>
  <use x="222.535156" y="603.792969" xlink:href="#e"/>
  <use x="227.933594" y="603.792969" xlink:href="#a"/>
  <use x="235.457031" y="603.792969" xlink:href="#q"/>
  <use x="250.675781" y="603.792969" xlink:href="#c"/>
  <use x="255.910156" y="603.792969" xlink:href="#h"/>
  <use x="263.703125" y="603.792969" xlink:href="#b"/>
  <use x="274.941406" y="603.792969" xlink:href="#p"/>
  <use x="284.101562" y="603.792969" xlink:href="#a"/>
  <use x="291.625" y="603.792969" xlink:href="#o"/>
  <use x="299.417969" y="603.792969" xlink:href="#f"/>
  <use x="311.023438" y="603.792969" xlink:href="#n"/>
  <use x="319.046875" y="603.792969" xlink:href="#e"/>
  <use x="324.445312" y="603.792969" xlink:href="#a"/>
  <use x="331.96875" y="603.792969" xlink:href="#m"/>
  <use x="335.722656" y="603.792969" xlink:href="#b"/>
  <use x="343.144531" y="603.792969" xlink:href="#l"/>
  <use x="349.636719" y="603.792969" xlink:href="#c"/>
 </g>
</svg>
